<?xml version="1.0" encoding="utf-8"?>
<svg viewBox="0 0 350 350" xmlns="http://www.w3.org/2000/svg">
  <style type="text/css">
        .cup {
            fill: #FFF;
            stroke: #cccccc;
            stroke-width: 1;
            stroke-miterlimit: 10;
            pointer-events: all;
        }
        .sleeve {
            fill: #917a53;
        }
        .lid {
            fill: #ffffff;
            stroke: #cccccc;
            stroke-width: 1;
            stroke-miterlimit: 10;
        }
    </style>
  <path class="cup" d="M 260.699 326.028 C 206.419 341.122 147.641 340.977 93.506 325.592 C 81.75 228.788 70.139 134.596 57.947 45.483 C 137.917 45.483 217.741 45.483 297.709 45.483 C 284.938 134.596 272.892 228.932 260.699 326.028 Z"/>
  <path class="sleeve" d="M 268.727 256.957 C 204.868 264.795 148.732 263.608 84.873 255.769 C 80.228 215.422 74.397 175.524 69.753 135.031 C 142.9 145.482 211.87 145.482 285.018 135.031 C 280.229 175.378 273.517 216.464 268.727 256.957 Z"/>
  <path class="lid" d="M 312.658 42.726 L 312.658 62.755 C 312.658 62.755 289.727 68.124 179.134 68.124 C 68.542 68.124 45.611 62.755 45.611 62.755 L 45.611 42.726 C 45.611 40.114 47.643 38.082 50.256 38.082 L 58.673 38.082 L 58.673 21.391 C 58.673 16.166 62.882 11.958 68.106 11.958 L 259.394 11.958 L 264.328 15.15 C 265.924 16.166 267.957 16.166 269.698 15.15 L 275.068 11.958 L 290.888 11.958 C 295.678 11.958 299.741 15.876 299.741 20.811 L 299.741 38.082 L 308.159 38.082 C 310.626 38.082 312.658 40.114 312.658 42.726 Z"/>
</svg>