<?xml version="1.0" encoding="utf-8"?>
<svg id="Layer_1" style="enable-background:new 0 0 512 512;" x="0px" y="0px" viewBox="0 0 256 256" xmlns="http://www.w3.org/2000/svg">
  <path style="fill: rgb(194, 228, 252);" d="M -0.046 0.067 C -0.311 19.655 0.086 51.819 0.007 79.897 C -0.034 94.459 0.158 107.906 -0.006 117.947 C -0.063 121.42 -0.615 124.499 -0.615 127.057 C -0.615 159.936 11.782 189.911 32.139 212.595 C 57.834 224.266 89.383 231.164 123.513 231.164 C 164.075 231.164 201.018 221.446 228.782 205.518 C 245.607 183.835 255.65 156.627 255.65 127.057 C 255.65 106.154 256.02 31.434 256.052 -0.312 C 188.3 -0.397 185.71 0.053 138.449 0.053 C 113.028 0.053 100.081 -0.421 71.99 0.174 C 55.282 0.527 33.114 -0.214 -0.046 0.067 Z"/>
  <path style="fill: rgb(218, 239, 249);" d="M 247.14 172.976 C 252.618 158.716 255.65 143.244 255.65 127.057 C 255.65 114.94 253.931 103.232 250.789 92.121 C 224.931 69.883 177.619 54.982 123.513 54.982 C 76.056 54.982 33.843 66.454 6.728 84.278 C 1.988 97.659 -0.615 112.051 -0.615 127.057 C -0.615 146.173 3.603 164.296 11.109 180.59 C 38.279 196.835 78.541 207.14 123.513 207.14 C 175.168 207.14 220.625 193.557 247.14 172.976 Z"/>
  <path style="fill: rgb(177, 213, 236);" d="M -0.04 103.527 L 254.853 102.041 C 255.265 59.682 255.318 87.637 256.136 59.675 L 177.691 56.441 C 173.679 55.486 169.484 55.622 165.542 56.835 L 125.208 69.246 C 121.484 70.391 117.513 70.467 113.748 69.463 L 65.215 56.521 C 61.432 55.511 57.454 55.48 53.656 56.43 L 0.403 59.222 C -0.263 76.144 -0.017 81.601 -0.026 83.958 C -0.04 87.599 -0.033 83.852 -0.04 103.527 Z"/>
  <g transform="matrix(0.500517, 0, 0, 0.426275, -0.614562, 10.209354)">
    <path style="fill:#7DB9E6;" d="M 512 256 C 512 232.661 512.374 209.957 511.855 187.049 C 484.556 174.584 432 152 424 152 C 406.111 152 312.051 193.717 303.556 193.111 C 288 192 216 168 200 168 C 192 168 104 192 88 192 C 76.784 192 23.355 170.067 1.194 163.993 C 1.708 258.322 1.092 224.662 1.092 256 C 1.092 256.184 2.197 258.715 1.47 258.898 L 511.809 263.559 C 511.882 261.042 512 258.535 512 256 Z"/>
    <path style="fill:#7DB9E6;" d="M 1.248 247.89 C 1.168 244.037 1.798 242.518 1.272 250.003 C 1.093 252.547 1.139 253.962 1.139 256 C 1.139 269.634 1.039 292.558 1.195 319.457 C 1.559 382.404 1.257 467.117 1.405 505.481 C 1.419 509.234 164.266 544.456 256 544.456 C 347.983 544.456 513.958 533.004 512.512 446.851 C 511.788 403.728 511.922 305.402 512 256 C 512.004 253.317 511.88 250.663 511.798 248 L 1.248 247.89 Z"/>
  </g>
  <path style="fill: rgb(100, 155, 210);" d="M 249.233 167.098 L 57.445 167.098 C 54.128 167.098 51.439 169.787 51.439 173.104 C 51.439 176.421 54.128 179.11 57.445 179.11 L 95.852 179.11 C 96.679 181.438 98.879 183.115 101.491 183.115 L 175.935 183.115 C 176.762 185.442 178.961 187.119 181.573 187.119 L 240.704 187.119 C 244.092 180.747 246.946 174.053 249.233 167.098 Z"/>
  <g style="opacity: 0.4;" transform="matrix(0.500517, 0, 0, 0.500517, -0.614562, -1.075389)">
    <path style="fill:#FFFFF5;" d="M 0.202 248 C 0.12 250.663 -0.364 251.132 0 256 C 1.224 272.369 1.22 304 1.22 304 L 507.44 304 C 510.392 288.445 512 272.414 512 256 C 512 253.317 511.88 250.663 511.798 248 L 0.202 248 Z"/>
  </g>
  <path style="fill: rgb(125, 185, 230);" d="M 73.904 131.353 L -0.105 131.353 C 0.013 135.407 0.317 139.414 0.802 143.365 L 73.885 143.365 C 77.202 143.365 79.895 140.676 79.9 137.359 C 79.905 134.042 77.221 131.353 73.904 131.353 Z" transform="matrix(1, -0.000168, 0.000168, 1, -0.023075, 0.006705)"/>
  <path style="fill: rgb(90, 160, 126);" d="M 255.65 127.057 C 255.65 115.286 254.031 103.9 251.059 93.074 L 249.421 98.806 L 245.417 84.791 L 241.985 96.804 L 237.409 80.787 L 230.513 104.923 L 225.397 87.015 L 221.964 99.028 L 217.388 83.011 L 212.78 99.139 L 209.824 88.795 L 207.6 96.581 L 205.376 88.795 L 200.004 107.598 L 197.48 107.43 L 189.359 79.007 L 184.751 95.135 L 181.796 84.791 L 177.823 98.694 L 173.343 83.011 L 168.417 100.252 L 165.779 91.02 L 164.095 96.915 L 161.775 88.795 L 156.373 107.703 L 149.318 83.011 L 142.486 106.924 L 137.305 88.795 L 129.687 109.372 L 122.762 84.012 L 116.331 105.924 L 113.725 96.804 L 110.611 107.703 L 109.277 103.032 L 102.666 126.167 L 97.709 108.815 L 85.307 151.082 L 253.367 151.082 C 254.845 143.296 255.65 135.272 255.65 127.057 Z"/>
  <polygon style="fill: rgb(110, 170, 100);" points="197.368 87.015 187.58 121.273 207.155 121.273"/>
  <rect x="196.143" y="121.271" style="fill: rgb(95, 70, 72);" width="2.447" height="9.788"/>
  <polygon style="fill: rgb(140, 190, 105);" points="197.368 87.015 194.921 95.58 202.261 121.273 207.155 121.273"/>
  <polygon style="fill: rgb(110, 170, 100);" points="184.243 94.357 176.902 116.379 191.583 116.379"/>
  <rect x="183.02" y="116.381" style="fill: rgb(95, 70, 72);" width="2.447" height="18.684"/>
  <polygon style="fill: rgb(140, 190, 105);" points="184.243 94.357 181.796 101.697 186.69 116.379 191.583 116.379"/>
  <polygon style="fill: rgb(110, 170, 100);" points="102.825 106.369 95.484 128.392 110.166 128.392"/>
  <rect x="101.601" y="128.393" style="fill: rgb(95, 70, 72);" width="2.447" height="18.684"/>
  <polygon style="fill: rgb(140, 190, 105);" points="102.825 106.369 100.378 113.709 105.272 128.392 110.166 128.392"/>
  <polygon style="fill: rgb(110, 170, 100);" points="128.185 91.687 120.844 125.055 135.526 125.055"/>
  <rect x="126.962" y="125.055" style="fill: rgb(95, 70, 72);" width="2.447" height="18.684"/>
  <polygon style="fill: rgb(140, 190, 105);" points="128.185 91.687 126.121 101.067 130.632 125.055 135.526 125.055"/>
  <polygon style="fill: rgb(110, 170, 100);" points="153.766 87.015 143.979 121.273 163.555 121.273"/>
  <rect x="152.543" y="121.271" style="fill: rgb(95, 70, 72);" width="2.447" height="9.788"/>
  <polygon style="fill: rgb(140, 190, 105);" points="153.766 87.015 151.32 95.58 158.661 121.273 163.555 121.273"/>
  <polygon style="fill: rgb(110, 170, 100);" points="229.401 87.015 219.613 121.273 239.188 121.273"/>
  <rect x="228.176" y="121.271" style="fill: rgb(95, 70, 72);" width="2.447" height="9.788"/>
  <polygon style="fill: rgb(140, 190, 105);" points="229.401 87.015 226.954 95.58 234.294 121.273 239.188 121.273"/>
  <path style="fill: rgb(220, 215, 195);" d="M 220.623 127.391 C 204.924 123.109 199.935 123.053 188.59 130.394 C 177.244 137.735 170.241 132.12 163.564 129.727 C 145.879 123.386 142.208 133.063 126.859 135.065 C 111.509 137.067 106.958 133.468 98.163 136.4 C 85.149 140.738 87.199 148.827 75.139 153.084 C 63.794 157.088 66.797 171.102 66.797 171.102 L 247.878 171.102 C 250.779 163.178 253.804 155.55 255.096 146.98 C 256.043 140.698 255.65 133.604 255.65 127.057 C 255.65 125.871 255.592 124.698 255.56 123.52 C 246.033 126.546 233.511 130.905 220.623 127.391 Z"/>
  <path style="fill: rgb(205, 195, 175);" d="M 255.472 146.722 C 249.061 146.172 240.823 146.268 234.628 148.746 C 214.607 156.754 213.606 146.41 199.592 143.073 C 184.171 139.401 173.231 156.754 152.543 157.755 C 143.6 158.188 136.396 152.239 127.517 151.082 C 112.168 149.079 103.493 163.094 87.476 159.09 C 71.46 155.086 66.797 171.102 66.797 171.102 L 255.391 172.649 C 255.95 159.515 255.142 167.729 255.472 146.722 Z"/>
  <g transform="matrix(0.500517, 0, 0, 0.500517, -0.614562, -1.075389)">
    <path style="fill:#DCD7C3;" d="M282.939,336c-3.569,0-6.936,0.799-9.967,2.203C266.531,331.896,257.744,328,248,328&#10;&#9;&#9;c-15.652,0-28.836,10.05-33.795,24h46.205h21.386h23.674C302.164,342.7,293.374,336,282.939,336z"/>
    <path style="fill:#DCD7C3;" d="M435.591,352c-4.959-13.95-18.144-24-33.795-24S372.959,338.05,368,352H435.591z"/>
  </g>
  <path style="fill: rgb(90, 160, 126);" d="M 49.525 118.604 L 43.283 107.036 L 42.022 109.372 L 39.081 103.922 L 36.62 108.482 L 28.916 99.528 L 22.409 106.285 L 15.902 98.027 L 10.522 104.784 L 5.466 97.026 L 1.392 104.574 C 0.671 108.641 -0.041 112.723 -0.003 116.957 C -0.001 117.22 0.001 117.504 0.003 117.804 C 0.02 121.318 -0.021 127.041 -0.021 127.041 C -0.021 127.041 -0.04 129.681 0.001 131.014 L 63.952 131.061 L 54.207 109.928 L 49.525 118.604 Z"/>
  <path style="fill: rgb(220, 215, 195);" d="M 67.546 128.342 C 62.121 126.428 63.043 122.789 57.19 120.838 C 53.234 119.519 51.186 121.138 44.283 120.238 C 37.379 119.337 35.728 114.985 27.774 117.836 C 24.77 118.913 21.62 121.438 16.517 118.137 C 11.415 114.835 9.17 114.86 2.11 116.786 C 1.335 116.997 -0.03 117.231 -0.03 117.231 L -0.006 127.125 C -0.006 127.125 -0.194 132.411 -0.046 135.669 C -0.034 135.944 -0.019 136.205 -0.001 136.447 L 71.298 136.447 C 71.298 136.447 72.648 130.143 67.546 128.342 Z"/>
  <path style="fill: rgb(205, 195, 175);" d="M 0.02 136.437 L 71.298 136.447 C 71.298 136.447 69.201 129.243 61.997 131.044 C 54.793 132.845 50.891 126.541 43.987 127.442 C 39.993 127.963 36.753 130.638 32.731 130.443 C 23.426 129.993 18.505 122.188 11.569 123.839 C 6.246 125.107 5.67 128.52 0.021 127.415 C 0.022 127.721 0.022 128.172 0.021 128.551 C 0.02 129.418 0.017 130.264 0.014 131.129 C 0.013 131.256 0.013 131.382 0.012 131.509 C 0.012 131.509 0.012 131.509 0.012 131.509 C 0.011 131.869 0.01 132.233 0.009 132.604 C 0.007 133.337 0.006 134.04 0.006 134.645 C 0.006 135.506 0.01 136.169 0.02 136.437 Z"/>
  <path style="fill: rgb(220, 240, 255);" d="M 85.749 38.392 C 85.749 34.563 88.853 31.459 92.682 31.459 C 93.26 31.459 93.813 31.55 94.349 31.683 C 96.159 29.73 98.723 28.488 101.596 28.488 C 107.066 28.488 111.501 32.922 111.501 38.392 L 85.749 38.392 L 85.749 38.392 Z"/>
  <g transform="matrix(0.500517, 0, 0, 0.500517, -0.614562, -1.075389)">
    <path style="fill:#FFFFFF;" d="M283.553,46.905c0-8.855-7.179-16.034-16.034-16.034c-1.336,0-2.614,0.211-3.855,0.52&#10;&#9;&#9;C259.48,26.873,253.548,24,246.905,24C234.255,24,224,34.255,224,46.905H283.553z"/>
    <path style="fill:#FFFFFF;" d="M188.185,72.123c-1.666,0-3.24,0.328-4.749,0.804c-4.78-6.871-12.708-11.388-21.713-11.388&#10;&#9;&#9;s-16.933,4.517-21.713,11.388c-1.509-0.476-3.083-0.804-4.749-0.804c-8.769,0-15.877,7.108-15.877,15.877h84.677&#10;&#9;&#9;C204.062,79.231,196.953,72.123,188.185,72.123z"/>
  </g>
  <g transform="matrix(0.500517, 0, 0, 0.500517, -0.614562, -1.075389)">
    <path style="fill:#DCF0FF;" d="M266.049,53.02c0-5.847,4.74-10.587,10.587-10.587c0.883,0,1.726,0.14,2.546,0.343&#10;&#9;&#9;c2.763-2.983,6.68-4.88,11.066-4.88c8.353,0,15.125,6.772,15.125,15.125L266.049,53.02L266.049,53.02z"/>
    <path style="fill:#DCF0FF;" d="M301.599,87.125c0-5.847,4.74-10.587,10.587-10.587c0.883,0,1.726,0.14,2.546,0.343&#10;&#9;&#9;c2.763-2.983,6.68-4.88,11.066-4.88c8.353,0,15.125,6.772,15.125,15.125h-39.324V87.125z"/>
  </g>
  <path style="fill: rgb(255, 255, 255);" d="M 188.542 40.722 C 187.803 40.722 187.104 40.868 186.434 41.079 C 184.313 38.03 180.795 36.025 176.799 36.025 C 172.803 36.025 169.284 38.03 167.163 41.079 C 166.494 40.868 165.795 40.722 165.056 40.722 C 161.164 40.722 158.01 43.876 158.01 47.768 L 195.588 47.768 C 195.588 43.877 192.434 40.722 188.542 40.722 Z"/>
  <g/>
  <g/>
  <g/>
  <g/>
  <g/>
  <g/>
  <g/>
  <g/>
  <g/>
  <g/>
  <g/>
  <g/>
  <g/>
  <g/>
  <g/>
  <rect x="0.082" y="202.59" width="255.999" height="53.475" style="fill: rgb(100, 155, 210);" rx="0.577" ry="0.577"/>
</svg>