<?xml version="1.0" encoding="utf-8"?>
<svg id="Layer_1" style="enable-background:new 0 0 512 512;" x="0px" y="0px" viewBox="0 0 256 256" xmlns="http://www.w3.org/2000/svg">
  <path style="fill: rgb(194, 228, 252);" d="M -0.046 -1.259 C -0.311 18.329 0.086 50.493 0.007 78.571 C -0.034 93.133 0.158 106.58 -0.006 116.621 C -0.063 120.094 -0.615 123.173 -0.615 125.731 C -0.615 158.61 11.782 188.585 32.139 211.269 C 57.834 222.94 89.383 229.838 123.513 229.838 C 164.075 229.838 201.018 220.12 228.782 204.192 C 245.607 182.509 255.65 155.301 255.65 125.731 C 255.65 104.828 256.02 30.108 256.052 -1.638 C 188.3 -1.723 185.71 -1.273 138.449 -1.273 C 113.028 -1.273 100.081 -1.747 71.99 -1.152 C 55.282 -0.799 33.114 -1.54 -0.046 -1.259 Z"/>
  <path style="fill: rgb(218, 239, 249);" d="M 247.14 172.976 C 252.618 158.716 255.65 143.244 255.65 127.057 C 255.65 114.94 253.931 103.232 250.789 92.121 C 224.931 69.883 177.619 54.982 123.513 54.982 C 76.056 54.982 33.843 66.454 6.728 84.278 C 1.988 97.659 -0.615 112.051 -0.615 127.057 C -0.615 146.173 3.603 164.296 11.109 180.59 C 38.279 196.835 78.541 207.14 123.513 207.14 C 175.168 207.14 220.625 193.557 247.14 172.976 Z"/>
  <path style="fill: rgb(177, 213, 236);" d="M -0.04 103.527 L 254.853 102.041 C 255.265 59.682 255.318 87.637 256.136 59.675 L 177.691 56.441 C 173.679 55.486 169.484 55.622 165.542 56.835 L 125.208 69.246 C 121.484 70.391 117.513 70.467 113.748 69.463 L 65.215 56.521 C 61.432 55.511 57.454 55.48 53.656 56.43 L 0.403 59.222 C -0.263 76.144 -0.017 81.601 -0.026 83.958 C -0.04 87.599 -0.033 83.852 -0.04 103.527 Z"/>
  <g transform="matrix(0.500517, 0, 0, 0.426275, -0.614562, 10.209354)">
    <path style="fill:#7DB9E6;" d="M 512 256 C 512 232.661 512.374 209.957 511.855 187.049 C 484.556 174.584 432 152 424 152 C 406.111 152 312.051 193.717 303.556 193.111 C 288 192 216 168 200 168 C 192 168 104 192 88 192 C 76.784 192 23.355 170.067 1.194 163.993 C 1.708 258.322 1.092 224.662 1.092 256 C 1.092 256.184 2.197 258.715 1.47 258.898 L 511.809 263.559 C 511.882 261.042 512 258.535 512 256 Z"/>
    <path style="fill:#7DB9E6;" d="M 1.248 247.89 C 1.168 244.037 1.798 242.518 1.272 250.003 C 1.093 252.547 1.139 253.962 1.139 256 C 1.139 269.634 1.039 292.558 1.195 319.457 C 1.559 382.404 1.257 467.117 1.405 505.481 C 1.419 509.234 164.266 544.456 256 544.456 C 347.983 544.456 513.958 533.004 512.512 446.851 C 511.788 403.728 511.922 305.402 512 256 C 512.004 253.317 511.88 250.663 511.798 248 L 1.248 247.89 Z"/>
    <path style="stroke: black; fill: none;"/>
    <path style="stroke: black; fill: none;"/>
  </g>
  <path style="fill: rgb(100, 155, 210);" d="M 249.233 167.098 L 57.445 167.098 C 54.128 167.098 51.439 169.787 51.439 173.104 C 51.439 176.421 54.128 179.11 57.445 179.11 L 95.852 179.11 C 96.679 181.438 98.879 183.115 101.491 183.115 L 175.935 183.115 C 176.762 185.442 178.961 187.119 181.573 187.119 L 240.704 187.119 C 244.092 180.747 246.946 174.053 249.233 167.098 Z"/>
  <g style="opacity: 0.4;" transform="matrix(0.500517, 0, 0, 0.500517, -0.614562, -1.075389)">
    <path style="fill:#FFFFF5;" d="M 0.202 248 C 0.12 250.663 -0.364 251.132 0 256 C 1.224 272.369 1.22 304 1.22 304 L 507.44 304 C 510.392 288.445 512 272.414 512 256 C 512 253.317 511.88 250.663 511.798 248 L 0.202 248 Z"/>
  </g>
  <path style="fill: rgb(125, 185, 230);" d="M 73.904 131.353 L -0.105 131.353 C 0.013 135.407 0.317 139.414 0.802 143.365 L 73.885 143.365 C 77.202 143.365 79.895 140.676 79.9 137.359 C 79.905 134.042 77.221 131.353 73.904 131.353 Z" transform="matrix(1, -0.000168, 0.000168, 1, -0.023075, 0.006705)"/>
  <path d="M 255.65 127.057 C 255.65 115.286 254.031 103.9 251.059 93.074 L 249.421 98.806 L 245.417 84.791 L 241.985 96.804 L 237.409 80.787 L 230.513 104.923 L 225.397 87.015 L 221.964 99.028 L 217.388 83.011 L 212.78 99.139 L 209.824 88.795 L 207.6 96.581 L 205.376 88.795 L 200.004 107.598 L 197.48 107.43 L 189.359 79.007 L 184.751 95.135 L 181.796 84.791 L 177.823 98.694 L 173.343 83.011 L 168.417 100.252 L 165.779 91.02 L 164.095 96.915 L 161.775 88.795 L 156.373 107.703 L 149.318 83.011 L 142.486 106.924 L 137.305 88.795 L 129.687 109.372 L 122.762 84.012 L 116.331 105.924 L 113.725 96.804 L 110.611 107.703 L 109.277 103.032 L 102.666 126.167 L 97.709 108.815 L 85.307 151.082 L 253.367 151.082 C 254.845 143.296 255.65 135.272 255.65 127.057 Z" style="fill: rgb(61, 115, 88);"/>
  <polygon style="fill: rgb(110, 170, 100);" points="197.368 87.015 187.58 121.273 207.155 121.273"/>
  <rect x="196.143" y="121.271" style="fill: rgb(95, 70, 72);" width="2.447" height="9.788"/>
  <polygon style="fill: rgb(140, 190, 105);" points="197.368 87.015 194.921 95.58 202.261 121.273 207.155 121.273"/>
  <polygon style="fill: rgb(110, 170, 100);" points="184.243 94.357 176.902 116.379 191.583 116.379"/>
  <rect x="183.02" y="116.381" style="fill: rgb(95, 70, 72);" width="2.447" height="18.684"/>
  <polygon style="fill: rgb(140, 190, 105);" points="184.243 94.357 181.796 101.697 186.69 116.379 191.583 116.379"/>
  <polygon style="fill: rgb(110, 170, 100);" points="102.825 106.369 95.484 128.392 110.166 128.392"/>
  <rect x="101.601" y="128.393" style="fill: rgb(95, 70, 72);" width="2.447" height="18.684"/>
  <polygon style="fill: rgb(140, 190, 105);" points="102.825 106.369 100.378 113.709 105.272 128.392 110.166 128.392"/>
  <polygon points="128.185 91.687 120.844 125.055 135.526 125.055" style="fill: rgb(110, 170, 100);"/>
  <rect x="126.962" y="125.055" style="fill: rgb(95, 70, 72);" width="2.447" height="18.684"/>
  <polygon style="fill: rgb(140, 190, 105);" points="128.185 91.687 126.121 101.067 130.632 125.055 135.526 125.055"/>
  <polygon style="fill: rgb(110, 170, 100);" points="153.766 87.015 143.979 121.273 163.555 121.273"/>
  <rect x="152.543" y="121.271" style="fill: rgb(95, 70, 72);" width="2.447" height="9.788"/>
  <polygon style="fill: rgb(140, 190, 105);" points="153.766 87.015 151.32 95.58 158.661 121.273 163.555 121.273"/>
  <polygon style="fill: rgb(110, 170, 100);" points="229.401 87.015 219.613 121.273 239.188 121.273"/>
  <rect x="228.176" y="121.271" style="fill: rgb(95, 70, 72);" width="2.447" height="9.788"/>
  <polygon style="fill: rgb(140, 190, 105);" points="229.401 87.015 226.954 95.58 234.294 121.273 239.188 121.273"/>
  <path style="fill: rgb(220, 215, 195);" d="M 220.623 127.391 C 204.924 123.109 199.935 123.053 188.59 130.394 C 177.244 137.735 170.241 132.12 163.564 129.727 C 145.879 123.386 142.208 133.063 126.859 135.065 C 111.509 137.067 106.958 133.468 98.163 136.4 C 85.149 140.738 87.199 148.827 75.139 153.084 C 63.794 157.088 66.797 171.102 66.797 171.102 L 247.878 171.102 C 250.779 163.178 253.804 155.55 255.096 146.98 C 256.043 140.698 255.65 133.604 255.65 127.057 C 255.65 125.871 255.592 124.698 255.56 123.52 C 246.033 126.546 233.511 130.905 220.623 127.391 Z"/>
  <path style="fill: rgb(205, 195, 175);" d="M 255.472 146.722 C 249.061 146.172 240.823 146.268 234.628 148.746 C 214.607 156.754 213.606 146.41 199.592 143.073 C 184.171 139.401 173.231 156.754 152.543 157.755 C 143.6 158.188 136.396 152.239 127.517 151.082 C 112.168 149.079 103.493 163.094 87.476 159.09 C 71.46 155.086 66.797 171.102 66.797 171.102 L 255.391 172.649 C 255.95 159.515 255.142 167.729 255.472 146.722 Z"/>
  <g transform="matrix(0.500517, 0, 0, 0.500517, -0.614562, -1.075389)">
    <path style="fill:#DCD7C3;" d="M282.939,336c-3.569,0-6.936,0.799-9.967,2.203C266.531,331.896,257.744,328,248,328&#10;&#9;&#9;c-15.652,0-28.836,10.05-33.795,24h46.205h21.386h23.674C302.164,342.7,293.374,336,282.939,336z"/>
    <path style="fill:#DCD7C3;" d="M435.591,352c-4.959-13.95-18.144-24-33.795-24S372.959,338.05,368,352H435.591z"/>
  </g>
  <path d="M 49.525 118.604 L 43.283 107.036 L 42.022 109.372 L 39.081 103.922 L 36.62 108.482 L 28.916 99.528 L 22.409 106.285 L 15.902 98.027 L 10.522 104.784 L 5.466 97.026 L 1.392 104.574 C 0.671 108.641 -0.041 112.723 -0.003 116.957 C -0.001 117.22 0.001 117.504 0.003 117.804 C 0.02 121.318 -0.021 127.041 -0.021 127.041 C -0.021 127.041 -0.04 129.681 0.001 131.014 L 63.952 131.061 L 54.207 109.928 L 49.525 118.604 Z" style="fill: rgb(61, 115, 88);"/>
  <path style="fill: rgb(220, 215, 195);" d="M 67.546 128.342 C 62.121 126.428 63.043 122.789 57.19 120.838 C 53.234 119.519 51.186 121.138 44.283 120.238 C 37.379 119.337 35.728 114.985 27.774 117.836 C 24.77 118.913 21.62 121.438 16.517 118.137 C 11.415 114.835 9.17 114.86 2.11 116.786 C 1.335 116.997 -0.03 117.231 -0.03 117.231 L -0.006 127.125 C -0.006 127.125 -0.194 132.411 -0.046 135.669 C -0.034 135.944 -0.019 136.205 -0.001 136.447 L 71.298 136.447 C 71.298 136.447 72.648 130.143 67.546 128.342 Z"/>
  <path style="fill: rgb(205, 195, 175);" d="M 0.02 136.437 L 71.298 136.447 C 71.298 136.447 69.201 129.243 61.997 131.044 C 54.793 132.845 50.891 126.541 43.987 127.442 C 39.993 127.963 36.753 130.638 32.731 130.443 C 23.426 129.993 18.505 122.188 11.569 123.839 C 6.246 125.107 5.67 128.52 0.021 127.415 C 0.022 127.721 0.022 128.172 0.021 128.551 C 0.02 129.418 0.017 130.264 0.014 131.129 C 0.013 131.256 0.013 131.382 0.012 131.509 C 0.012 131.509 0.012 131.509 0.012 131.509 C 0.011 131.869 0.01 132.233 0.009 132.604 C 0.007 133.337 0.006 134.04 0.006 134.645 C 0.006 135.506 0.01 136.169 0.02 136.437 Z"/>
  <path style="fill: rgb(220, 240, 255);" d="M 85.749 38.392 C 85.749 34.563 88.853 31.459 92.682 31.459 C 93.26 31.459 93.813 31.55 94.349 31.683 C 96.159 29.73 98.723 28.488 101.596 28.488 C 105.857 28.488 109.489 31.178 110.887 34.953 C 111.284 36.024 111.773 38.513 108.532 38.754 C 100.798 39.33 85.749 38.392 85.749 38.392 L 85.749 38.392 Z"/>
  <g transform="matrix(0.500517, 0, 0, 0.500517, -0.614562, -1.075389)">
    <path style="fill:#FFFFFF;" d="M 289.909 51.566 C 289.909 42.711 282.73 35.532 273.875 35.532 C 272.539 35.532 271.261 35.743 270.02 36.052 C 265.836 31.534 259.904 28.661 253.261 28.661 C 242.866 28.661 231.512 31.774 231.386 41.666 C 231.381 42.04 231.857 44.595 233.513 45.673 C 236.118 47.369 238.012 47.277 240.35 47.711 C 256.641 50.737 289.909 51.566 289.909 51.566 Z"/>
    <path style="fill:#FFFFFF;" d="M 188.185 72.123 C 186.519 72.123 184.945 72.451 183.436 72.927 C 178.656 66.056 170.728 61.539 161.723 61.539 C 152.718 61.539 144.79 66.056 140.01 72.927 C 138.501 72.451 136.927 72.123 135.261 72.123 C 126.492 72.123 119.384 79.231 119.384 88 L 119.627 90.578 C 119.627 90.578 120.692 93.321 121.764 94.139 C 122.437 94.652 124.161 95.203 124.161 95.203 L 127.439 95.281 L 188.348 93.773 L 196.575 93.46 L 199.09 93.346 C 199.09 93.346 200.972 93.017 201.768 92.532 C 203.555 91.443 204.061 88 204.061 88 C 204.062 79.231 196.953 72.123 188.185 72.123 Z"/>
  </g>
  <g transform="matrix(0.500517, 0, 0, 0.500517, -0.614562, -1.075389)">
    <path style="fill:#DCF0FF;" d="M 269.01 53.02 C 267.797 52.418 266.226 50.803 266.553 49.783 C 267.921 45.519 271.918 42.433 276.636 42.433 C 277.519 42.433 278.362 42.573 279.182 42.776 C 281.945 39.793 285.862 37.896 290.248 37.896 C 296.734 37.896 302.266 41.979 304.416 47.714 C 305.035 49.365 305.264 52.883 303.542 53.375 C 297.642 55.06 278.111 57.538 269.01 53.02 Z"/>
    <path style="fill:#DCF0FF;" d="M 304.559 87.126 C 303.316 86.814 301.938 86.717 302.187 83.638 C 302.517 79.564 307.561 76.538 312.186 76.538 C 313.069 76.538 313.912 76.678 314.732 76.881 C 317.495 73.898 321.412 72.001 325.798 72.001 C 334.151 72.001 340.923 78.773 340.923 87.126 C 340.923 87.126 316.316 90.074 304.559 87.126 Z"/>
  </g>
  <g/>
  <g/>
  <g/>
  <g/>
  <g/>
  <g/>
  <g/>
  <g/>
  <g/>
  <g/>
  <g/>
  <g/>
  <g/>
  <g/>
  <g/>
  <rect x="0.082" y="202.59" width="255.999" height="53.475" style="fill: rgb(100, 155, 210);" rx="0.577" ry="0.577"/>
  <path style="fill: rgb(255, 255, 255);" d="M 185.508 38.265 C 184.856 38.265 184.241 38.388 183.651 38.567 C 181.782 35.993 178.683 34.301 175.162 34.301 C 171.642 34.301 168.543 35.993 166.674 38.567 C 166.084 38.388 165.469 38.265 164.817 38.265 C 161.389 38.265 158.611 40.928 158.611 44.212 L 158.706 45.178 C 158.706 45.178 159.122 46.205 159.541 46.512 C 159.804 46.704 161.999 47.35 161.999 47.35 C 161.999 47.35 177.689 49.182 185.388 47.687 C 186.544 47.462 185.239 47.722 188.425 47.116 C 188.425 47.116 188.659 47.131 189.844 46.776 C 191.184 46.375 191.714 44.212 191.714 44.212 C 191.714 40.928 188.935 38.265 185.508 38.265 Z"/>
  <path d="M -38.096 128.053 Z" style="stroke: black; fill: rgb(61, 115, 88);"/>
  <path d="M 468.19 -25.234 Z" style="stroke: black; fill: rgb(61, 115, 88);"/>
  <path d="M 269.95 111.84 Z" style="stroke: black; fill: rgb(61, 115, 88);"/>
  <path d="M 367.596 85.309 Z" style="stroke: black; fill: none;"/>
  <path d="M 220.205 133.58 Z" style="stroke: black; fill: none;"/>
  <path d="M 212.836 193.641 Z" style="stroke: black; fill: none;"/>
  <path d="M -62.047 -29.287 Z" style="stroke: black; fill: none;"/>
  <path style="fill:#DCF0FF;" d="M 0.117 24.302 C -0.103 24.257 0.059 24.553 0.137 19.382 C 0.137 19.382 2.227 18.858 3.297 18.858 C 3.739 18.858 4.161 18.928 4.572 19.03 C 5.955 17.537 7.915 16.587 10.11 16.587 C 14.291 16.587 17.681 19.977 17.681 24.158 C 17.681 24.158 6.207 25.532 0.117 24.302 Z"/>
  <path style="fill: rgb(255, 255, 255);" d="M 32.342 31.656 C 33.498 31.431 34.187 26.884 30.417 23.591 C 29.039 22.387 28.198 20.878 26.881 19.953 C 25.152 18.736 23.032 18.27 22.116 18.27 C 18.596 18.27 15.497 19.962 13.628 22.536 C 13.038 22.357 12.423 22.234 11.771 22.234 C 9.818 22.234 8.076 23.099 6.938 24.45 C 6.079 25.47 6.408 27.527 7.001 28.879 C 7.212 29.361 8.435 30.296 9.276 30.73 C 10.252 31.234 12.443 31.635 12.443 31.635 C 12.443 31.635 27.362 32.623 32.342 31.656 Z"/>
</svg>
